<svg xmlns="http://www.w3.org/2000/svg" width="1200" height="630" viewBox="0 0 1200 630" role="img" aria-labelledby="title desc">
  <title id="title">Nebrex Automations</title>
  <desc id="desc">Nebrex brand social preview image.</desc>
  <defs>
    <pattern id="dot-grid" width="24" height="24" patternUnits="userSpaceOnUse">
      <circle cx="2" cy="2" r="1.15" fill="#F0EDE8" opacity="0.24"/>
    </pattern>
    <linearGradient id="soft-light" x1="0" y1="0" x2="1" y2="1">
      <stop offset="0" stop-color="#F0EDE8" stop-opacity="0.08"/>
      <stop offset="0.48" stop-color="#F0EDE8" stop-opacity="0.02"/>
      <stop offset="1" stop-color="#F0EDE8" stop-opacity="0.12"/>
    </linearGradient>
  </defs>
  <rect width="1200" height="630" fill="#050509"/>
  <rect width="1200" height="630" fill="url(#dot-grid)" opacity="0.72"/>
  <path d="M760 -60 C880 70 905 190 840 300 C765 426 816 533 1008 696" fill="none" stroke="#F0EDE8" stroke-opacity="0.11" stroke-width="1.4"/>
  <path d="M1040 -20 C980 112 995 236 1086 350 C1162 446 1168 550 1092 660" fill="none" stroke="#F0EDE8" stroke-opacity="0.08" stroke-width="1.2"/>
  <rect x="64" y="64" width="1072" height="502" rx="34" fill="url(#soft-light)" stroke="#F0EDE8" stroke-opacity="0.14"/>
  <g transform="translate(116 119)" fill="#F0EDE8">
    <text x="0" y="0" font-family="Arial, Helvetica, sans-serif" font-size="58" font-weight="700" letter-spacing="-4">N</text>
    <text x="52" y="0" font-family="Arial, Helvetica, sans-serif" font-size="72" font-weight="700" letter-spacing="-5">X</text>
    <text x="126" y="-7" font-family="Arial, Helvetica, sans-serif" font-size="37" font-weight="700" letter-spacing="8">NEBREX</text>
    <text x="130" y="22" font-family="Arial, Helvetica, sans-serif" font-size="13" font-weight="700" letter-spacing="2.7">THE AI AUTOMATION COMPANY</text>
  </g>
  <g transform="translate(116 256)" fill="#F0EDE8">
    <text x="0" y="0" font-family="Arial, Helvetica, sans-serif" font-size="60" font-weight="700" letter-spacing="-1">Websites and AI systems</text>
    <text x="0" y="74" font-family="Arial, Helvetica, sans-serif" font-size="60" font-weight="700" letter-spacing="-1">for growing local businesses.</text>
    <text x="0" y="148" font-family="Arial, Helvetica, sans-serif" font-size="27" font-weight="500" opacity="0.78">Built in Calgary. Serving businesses across Canada.</text>
  </g>
  <g transform="translate(116 490)">
    <rect width="186" height="54" rx="16" fill="#F0EDE8"/>
    <text x="28" y="36" font-family="Arial, Helvetica, sans-serif" font-size="18" font-weight="700" fill="#050509">Book a Call</text>
  </g>
</svg>
